<svg width="25" height="25" viewBox="0 0 25 25" fill="none" xmlns="http://www.w3.org/2000/svg">
<path d="M21.6701 7.54395C20.9809 5.82275 19.0055 5.81641 18.3112 7.54395C14.9082 16.0547 15.0216 15.6445 15.0216 16.4062C15.0216 18.561 17.261 20.3125 20.0284 20.3125C22.7958 20.3125 25 18.5605 25 16.4062C24.9636 15.6201 25.0536 15.9814 21.6701 7.54395ZM17.1405 15.625L19.9553 8.59375L22.7782 15.625H17.1405ZM9.97844 16.4062C9.97844 15.6191 10.0322 15.979 6.64892 7.54395C5.9597 5.82275 3.98437 5.81641 3.29006 7.54395C-0.112992 16.0547 0.000443105 15.6445 0.000443105 16.4062C0.000443105 18.561 2.23981 20.3125 4.97203 20.3125C7.70426 20.3125 9.97844 18.5596 9.97844 16.4062ZM4.96773 8.59375L7.79188 15.625H2.15376L4.96773 8.59375ZM19.331 21.875H13.7335V7.48535C14.6528 6.98242 15.3412 5.94727 15.5485 4.6875H19.992C20.6832 4.6875 21.2085 3.98779 21.2085 3.125C21.2085 2.26221 20.648 1.5625 19.992 1.5625H14.9696C14.3977 0.616211 13.5028 0 12.4811 0C11.4594 0 10.53 0.616211 9.99408 1.5625H4.97164C4.2793 1.5625 3.71994 2.26221 3.71994 3.125C3.71994 3.98779 4.2793 4.6875 4.93644 4.6875H9.37997C9.58533 5.94482 10.2745 6.98242 11.1938 7.48291V21.875H5.59749C4.56054 21.875 3.71955 22.9243 3.71955 24.2188C3.71955 24.6502 3.99982 25 4.3454 25H20.6175C20.9631 25 21.2433 24.6502 21.2433 24.2188C21.2437 22.9248 20.4027 21.875 19.331 21.875Z" fill="#DCE0DF"/>
</svg>
