<svg width="25" height="25" viewBox="0 0 25 25" fill="none" xmlns="http://www.w3.org/2000/svg">
<path d="M20.3125 10.1562C20.3125 12.3975 19.585 14.4678 18.3154 16.1475L24.541 22.334C25.1514 22.9443 25.1514 23.9307 24.541 24.541C23.9307 25.1514 22.9443 25.1514 22.334 24.541L16.1475 18.3154C14.4678 19.585 12.3975 20.3125 10.1562 20.3125C4.54688 20.3125 0 15.7666 0 10.1562C0 4.54688 4.54688 0 10.1562 0C15.7666 0 20.3125 4.54688 20.3125 10.1562ZM5.07812 13.6719C5.07812 14.3213 5.60059 14.8438 6.25 14.8438C6.89941 14.8438 7.42188 14.3213 7.42188 13.6719V10.5469C7.42188 9.89746 6.89941 9.375 6.25 9.375C5.60059 9.375 5.07812 9.89746 5.07812 10.5469V13.6719ZM8.98438 13.6719C8.98438 14.3213 9.50684 14.8438 10.1562 14.8438C10.8057 14.8438 11.3281 14.3213 11.3281 13.6719V5.85938C11.3281 5.20996 10.8057 4.6875 10.1562 4.6875C9.50684 4.6875 8.98438 5.20996 8.98438 5.85938V13.6719ZM12.8906 13.6719C12.8906 14.3213 13.4131 14.8438 14.0625 14.8438C14.7119 14.8438 15.2344 14.3213 15.2344 13.6719V8.98438C15.2344 8.33496 14.7119 7.8125 14.0625 7.8125C13.4131 7.8125 12.8906 8.33496 12.8906 8.98438V13.6719Z" fill="#DCE0DF"/>
</svg>
