<svg width="25" height="25" viewBox="0 0 25 25" fill="none" xmlns="http://www.w3.org/2000/svg">
<path d="M8.92857 2.67857C8.92857 1.19922 10.1283 0 11.6071 0H13.3929C14.8717 0 16.0714 1.19922 16.0714 2.67857V22.3214C16.0714 23.8002 14.8717 25 13.3929 25H11.6071C10.1283 25 8.92857 23.8002 8.92857 22.3214V2.67857ZM0 13.3929C0 11.9141 1.19922 10.7143 2.67857 10.7143H4.46429C5.94308 10.7143 7.14286 11.9141 7.14286 13.3929V22.3214C7.14286 23.8002 5.94308 25 4.46429 25H2.67857C1.19922 25 0 23.8002 0 22.3214V13.3929ZM22.3214 3.57143C23.8002 3.57143 25 4.77121 25 6.25V22.3214C25 23.8002 23.8002 25 22.3214 25H20.5357C19.0569 25 17.8571 23.8002 17.8571 22.3214V6.25C17.8571 4.77121 19.0569 3.57143 20.5357 3.57143H22.3214Z" fill="#DCE0DF"/>
</svg>
