<svg width="25" height="25" viewBox="0 0 25 25" fill="none" xmlns="http://www.w3.org/2000/svg">
<path d="M24.999 12.5C24.999 19.4043 19.4033 25 12.499 25C5.59473 25 -0.000976562 19.4043 -0.000976562 12.5C-0.000976562 5.5957 5.59473 0 12.499 0C19.4033 0 24.999 5.5957 24.999 12.5ZM8.59277 8.20312V16.7969C8.59277 17.2217 8.82227 17.6123 9.19336 17.8174C9.55957 18.0273 10.0137 18.0176 10.375 17.7979L17.4062 13.501C17.7529 13.2861 17.9678 12.9102 17.9678 12.5C17.9678 12.0898 17.7529 11.7139 17.4062 11.499L10.375 7.20215C10.0137 6.93848 9.55957 6.97266 9.19336 7.18262C8.82227 7.3877 8.59277 7.77832 8.59277 8.20312Z" fill="#DCE0DF"/>
</svg>
